<svg version="1.1" id="Layer_1" xmlns="http://www.w3.org/2000/svg" xmlns:xlink="http://www.w3.org/1999/xlink" x="0px" y="0px"
	 viewBox="0 0 512 174">
<g>
	<path fill="#FF5560" d="M40.9,171.4v-47c0-8.2-1.4-10.6-6.4-10.6c-3.8,0-8.8,2.5-13.1,6.5v51.1H2.5V119c0-6.2-0.8-12.1-2.5-16.9
		l16.8-4.8c1.7,3,2.7,6.1,2.7,9c2.8-2,5.2-3.7,8.3-5.4c3.8-2,8.8-3.1,13-3.1c8,0,15.1,4.2,17.4,10.4c1,2.7,1.4,5.8,1.4,10.3v52.8
		H40.9z"/>
	<path fill="#FF5560" d="M126.2,173.4c-2.4-1.7-4.4-4.1-5.6-7.1c-4.7,4.5-11.4,6.9-19.1,6.9c-10.2,0-18.9-4.8-21.3-11.7
		c-1.1-3.2-1.6-7.1-1.6-14.4v-46.3l18.6-3.5v46.4c0,6.5,0.6,9.9,1.6,11.9c1,2,3.8,3.4,6.6,3.4c4.7,0,10.3-3.4,11.7-6.9v-50.8
		l18.1-3.8v55.2c0,4.8,1.6,9.7,4.4,13.1L126.2,173.4z"/>
	<path fill="#FF5560" d="M199.9,168.6c-5.1,3-10.7,4.5-17.6,4.5c-19.9,0-31.5-13.8-31.5-37.3c0-16.7,6.4-27.7,14.8-33.5
		c4.8-3.2,11.9-5.4,17.9-5.4c4.8,0,10,1.1,14,3.2c2.7,1.4,4,2.4,7.1,5.1l-9.2,12.4c-3.8-3.5-7.9-5.6-11.4-5.6
		c-8.5,0-12.3,7.3-12.3,24.3c0,9.5,1.3,15.1,3.7,18.2c2,2.5,5.2,4.1,8.5,4.1c4.4,0,8.3-1.8,13-5.9l1.1-1l8.6,11.4
		C203.7,166,202.4,167,199.9,168.6z"/>
	<path fill="#FF5560" d="M237,173.1c-8,0-14.5-3.8-16.8-9.9c-1.4-3.7-1.7-5.9-1.7-16.2V93c0-9.5-0.3-15.2-1-21.7l19.3-4.4
		c0.7,4,1,8.6,1,18.8V142c0,12.4,0.1,14.1,1.3,16.1c0.7,1.3,2.3,2,3.8,2c0.7,0,1.1,0,2.1-0.3l3.2,11.3
		C245,172.4,241.1,173.1,237,173.1z"/>
	<path fill="#FF5560" d="M267.6,90.9c-6.4,0-11.6-5.2-11.6-11.7c0-6.5,5.4-11.7,11.9-11.7c6.4,0,11.4,5.2,11.4,11.7
		C279.3,85.7,274.1,90.9,267.6,90.9z M258.2,171.4v-71l18.9-3v74H258.2z"/>
	<path fill="#FF5560" d="M335.2,171.4v-47c0-8.2-1.4-10.6-6.4-10.6c-3.8,0-8.8,2.5-13.1,6.5v51.1h-18.9V119c0-6.2-0.8-12.1-2.5-16.9
		l16.8-4.8c1.7,3,2.7,6.1,2.7,9c2.8-2,5.2-3.7,8.3-5.4c3.8-2,8.8-3.1,13-3.1c8,0,15.1,4.2,17.4,10.4c1,2.7,1.4,5.8,1.4,10.3v52.8
		H335.2z"/>
	<path fill="#FF5560" d="M425,162.9c-5.5,6.2-12.7,10-23.9,10c-19.6,0-32.5-14.7-32.5-37.4s13-37.8,32.5-37.8
		c10.3,0,18.4,3.5,24.6,10.9c5.8,6.8,8.3,14.7,8.3,26.4C434,147.4,431.2,155.9,425,162.9z M409.6,115.5c-1.8-2.4-4.8-3.8-8.2-3.8
		c-4.5,0-8.2,2.8-9.7,7.3c-1.3,3.8-2,8.9-2,16.1c0,8.3,0.8,14.5,2.4,18.2c1.7,4,5.9,5.9,9.6,5.9c8.2,0,11.7-7.3,11.7-24.4
		C413.4,125.1,412.2,118.7,409.6,115.5z"/>
</g>
<g>
	<path fill="#FF5560" d="M473.4,15c-0.9,0-1.8,0-2.6,0.1l0-0.1c-0.8,0.1-1.6,0.2-2.4,0.4c-0.9,0.1-1.8,0.3-2.7,0.5
		c-7.1-8.6-17.8-13.7-29.1-13.7c-9.4,0-18.3,3.5-25.2,9.7l-0.1-0.1c-1.4,1.3-2.7,2.7-3.9,4.2c-2.7-0.6-5.5-0.9-8.2-0.9
		c-20.8,0-37.8,16.9-37.8,37.8c0,20.8,16.9,37.8,37.8,37.8h38.1v22.1c0,1.3,0.6,2.5,1.7,3.3c0.7,0.5,1.6,0.8,2.5,0.8
		c0.4,0,0.8-0.1,1.2-0.2c0.4-0.1,10-3.1,18.8-12.9c4.4-5,7.4-10.1,9-13.3c1,0.1,2,0.1,3,0.1c20.8,0,37.8-16.9,37.8-37.8
		C511.2,32,494.3,15,473.4,15z M473.4,82.3c-1.6,0-3.2-0.1-4.9-0.4c-1.3-0.2-2.6,0.2-3.5,1.1c-0.5,0.4-0.8,1-1,1.5
		c-0.3,0.6-3.2,7.5-8.8,13.7c-3.4,3.8-6.9,6.3-9.6,8V86.4c0-2.3-1.9-4.2-4.2-4.2h-42.3c-16.2,0-29.5-13.2-29.5-29.5
		c0-16.2,13.2-29.5,29.5-29.5c1.2,0,2.3,0.1,3.5,0.2c-1.8,3.8-3,7.9-3.4,12.2c-3.1,0.6-6,1.9-8.6,3.7c-1.9,1.3-2.4,3.9-1.1,5.8
		c1.3,1.9,3.9,2.4,5.8,1.1c2.8-1.9,6.1-2.9,9.5-2.7c4.9,0.2,9.2,2.7,12,6.8c0.8,1.2,2.1,1.8,3.4,1.8c0.8,0,1.6-0.2,2.3-0.7
		c1.9-1.3,2.4-3.9,1.1-5.8c-3.8-5.6-9.6-9.2-16.1-10.2c0.7-5.1,2.8-10,6-14.1c5.6-6.9,14-11,23-11c7.9,0,15.4,3.2,20.9,8.7
		c-3.5,1.8-6.6,4.2-9.4,7.1c-0.9-0.4-1.7-0.7-2.6-0.9c-5.1-1.4-10.4-1.2-15.2,0.8c-2.1,0.9-3.2,3.3-2.3,5.4c0.9,2.1,3.3,3.2,5.4,2.3
		c3.2-1.3,6.6-1.5,9.9-0.5c4.7,1.3,8.4,4.7,10.2,9.3c0.6,1.6,2.2,2.6,3.9,2.6c0.5,0,1-0.1,1.5-0.3c2.1-0.8,3.2-3.2,2.4-5.4
		c-1.3-3.4-3.3-6.3-5.9-8.7c4.1-3.8,9.2-6.3,14.8-7.3c1.1-0.1,2.3-0.2,3.5-0.2c16.2,0,29.5,13.2,29.5,29.5
		C502.9,69,489.7,82.3,473.4,82.3z"/>
	<path fill="#FF5560" d="M407.3,60.3c-2.7,2.1-6,3.2-9.4,3.2c-4.9,0-9.4-2.2-12.3-6.2c-1.4-1.8-4-2.2-5.8-0.8
		c-1.8,1.4-2.2,4-0.8,5.8c4.5,6,11.4,9.5,18.9,9.5c5.3,0,10.3-1.7,14.5-4.9c1.8-1.4,2.2-4,0.8-5.8C411.7,59.2,409.1,58.9,407.3,60.3
		z"/>
	<path fill="#FF5560" d="M488.3,57.2c-2.7,0-5.3-0.9-7.4-2.6c-3.1-2.4-4.8-6-4.7-9.8c0-2.3-1.8-4.2-4.1-4.2c0,0,0,0-0.1,0
		c-2.3,0-4.1,1.8-4.1,4.1c-0.1,4.6,1.4,8.9,4,12.5c-2.1,3.8-5.3,6.8-9.4,8.7c-5.5,2.6-11.7,2.6-17,0.1c2.7-3.7,4.2-8.1,4.4-12.7
		c0.1-2.3-1.7-4.2-4-4.3c-2.3-0.1-4.2,1.7-4.3,4c-0.2,3.4-1.4,6.6-3.6,9.2c-3.1,3.7-7.8,5.7-12.6,5.4c-2.3-0.1-4.2,1.6-4.4,3.9
		c-0.1,2.3,1.6,4.2,3.9,4.4c0.5,0,0.9,0,1.4,0c4.8,0,9.4-1.5,13.3-4.1c0.4,0.6,0.9,1.1,1.6,1.4c3.9,2,8.2,3,12.6,3
		c4.2,0,8.3-0.9,12.3-2.8c5.1-2.4,9.2-6,12.2-10.6c3.1,1.8,6.5,2.7,10.1,2.7c0,0,0,0,0,0c2.3,0,4.1-1.8,4.2-4.1
		C492.4,59.1,490.6,57.2,488.3,57.2z"/>
</g>
</svg>
